REM DIRINDEX 1\2,1\3,1\4
REM DIRNAME folder01,folder02,folder03,folder04
TITLE ""
FILE "Track27.mp3" MP3
  TRACK 01 AUDIO
    TITLE "0:"
    INDEX 01 00:00:00
  TRACK 02 AUDIO
    TITLE "4:cjc153_1637"
    INDEX 01 00:00:07
  TRACK 03 AUDIO
    TITLE "0:"
    INDEX 01 00:02:16
  TRACK 04 AUDIO
    TITLE "2:cjc153_1638"
    INDEX 01 00:03:00
  TRACK 05 AUDIO
    TITLE "0:"
    INDEX 01 00:04:01
  TRACK 06 AUDIO
    TITLE "3:cjc153_1639"
    INDEX 01 00:04:35
  TRACK 07 AUDIO
    TITLE "0:"
    INDEX 01 00:05:40
  TRACK 08 AUDIO
    TITLE "2:cjc153_1640"
    INDEX 01 00:06:10
  TRACK 09 AUDIO
    TITLE "0:"
    INDEX 01 00:07:13
  TRACK 10 AUDIO
    TITLE "3:cjc153_1641"
    INDEX 01 00:07:45
  TRACK 11 AUDIO
    TITLE "0:"
    INDEX 01 00:08:52
  TRACK 12 AUDIO
    TITLE "2:cjc153_1642"
    INDEX 01 00:09:20
  TRACK 13 AUDIO
    TITLE "0:"
    INDEX 01 00:10:47
  TRACK 14 AUDIO
    TITLE "3:cjc153_1643"
    INDEX 01 00:11:03
  TRACK 15 AUDIO
    TITLE "0:"
    INDEX 01 00:12:34
  TRACK 16 AUDIO
    TITLE "2:cjc153_1644"
    INDEX 01 00:13:02
  TRACK 17 AUDIO
    TITLE "0:"
    INDEX 01 00:14:11
  TRACK 18 AUDIO
    TITLE "3:cjc153_1645"
    INDEX 01 00:14:47
  TRACK 19 AUDIO
    TITLE "0:"
    INDEX 01 00:15:62
  TRACK 20 AUDIO
    TITLE "2:cjc153_1646"
    INDEX 01 00:16:30
  TRACK 21 AUDIO
    TITLE "0:"
    INDEX 01 00:17:25
  TRACK 22 AUDIO
    TITLE "3:cjc153_1647"
    INDEX 01 00:17:61
  TRACK 23 AUDIO
    TITLE "0:"
    INDEX 01 00:18:58
  TRACK 24 AUDIO
    TITLE "2:cjc153_1648"
    INDEX 01 00:19:30
  TRACK 25 AUDIO
    TITLE "0:"
    INDEX 01 00:20:28
  TRACK 26 AUDIO
    TITLE "3:cjc153_1649"
    INDEX 01 00:20:63
  TRACK 27 AUDIO
    TITLE "0:"
    INDEX 01 00:21:70
  TRACK 28 AUDIO
    TITLE "2:cjc153_1650"
    INDEX 01 00:22:38
  TRACK 29 AUDIO
    TITLE "0:"
    INDEX 01 00:23:40
  TRACK 30 AUDIO
    TITLE "3:cjc153_1651"
    INDEX 01 00:24:00
  TRACK 31 AUDIO
    TITLE "0:"
    INDEX 01 00:25:13
  TRACK 32 AUDIO
    TITLE "2:cjc153_1652"
    INDEX 01 00:25:58
  TRACK 33 AUDIO
    TITLE "0:"
    INDEX 01 00:26:58
  TRACK 34 AUDIO
    TITLE "3:cjc153_1653"
    INDEX 01 00:27:18
  TRACK 35 AUDIO
    TITLE "0:"
    INDEX 01 00:28:25
  TRACK 36 AUDIO
    TITLE "2:cjc153_1654"
    INDEX 01 00:28:72
  TRACK 37 AUDIO
    TITLE "0:"
    INDEX 01 00:30:16
  TRACK 38 AUDIO
    TITLE "3:cjc153_1655"
    INDEX 01 00:30:48
  TRACK 39 AUDIO
    TITLE "0:"
    INDEX 01 00:31:65
  TRACK 40 AUDIO
    TITLE "2:cjc153_1656"
    INDEX 01 00:32:35
  TRACK 41 AUDIO
    TITLE "0:"
    INDEX 01 00:33:34
  TRACK 42 AUDIO
    TITLE "3:cjc153_1657"
    INDEX 01 00:33:66
  TRACK 43 AUDIO
    TITLE "0:"
    INDEX 01 00:34:71
  TRACK 44 AUDIO
    TITLE "2:cjc153_1658"
    INDEX 01 00:35:41
  TRACK 45 AUDIO
    TITLE "0:"
    INDEX 01 00:36:70
  TRACK 46 AUDIO
    TITLE "3:cjc153_1659"
    INDEX 01 00:37:28
  TRACK 47 AUDIO
    TITLE "0:"
    INDEX 01 00:38:61
  TRACK 48 AUDIO
    TITLE "2:cjc153_1660"
    INDEX 01 00:39:31
  TRACK 49 AUDIO
    TITLE "0:"
    INDEX 01 00:40:24
  TRACK 50 AUDIO
    TITLE "3:cjc153_1661"
    INDEX 01 00:40:56
  TRACK 51 AUDIO
    TITLE "0:"
    INDEX 01 00:41:59
  TRACK 52 AUDIO
    TITLE "2:cjc153_1662"
    INDEX 01 00:42:27
  TRACK 53 AUDIO
    TITLE "0:"
    INDEX 01 00:43:35
  TRACK 54 AUDIO
    TITLE "3:cjc153_1663"
    INDEX 01 00:43:58
  TRACK 55 AUDIO
    TITLE "0:"
    INDEX 01 00:44:65
  TRACK 56 AUDIO
    TITLE "2:cjc153_1664"
    INDEX 01 00:45:35
  TRACK 57 AUDIO
    TITLE "0:"
    INDEX 01 00:46:25
  TRACK 58 AUDIO
    TITLE "3:cjc153_1665"
    INDEX 01 00:46:60
  TRACK 59 AUDIO
    TITLE "0:"
    INDEX 01 00:47:58
  TRACK 60 AUDIO
    TITLE "2:cjc153_1666"
    INDEX 01 00:48:28
  TRACK 61 AUDIO
    TITLE "0:"
    INDEX 01 00:49:31
  TRACK 62 AUDIO
    TITLE "3:cjc153_1667"
    INDEX 01 00:49:61
  TRACK 63 AUDIO
    TITLE "0:"
    INDEX 01 00:50:68
  TRACK 64 AUDIO
    TITLE "2:cjc153_1668"
    INDEX 01 00:51:38
  TRACK 65 AUDIO
    TITLE "0:"
    INDEX 01 00:52:41
  TRACK 66 AUDIO
    TITLE "3:cjc153_1669"
    INDEX 01 00:52:73
  TRACK 67 AUDIO
    TITLE "0:"
    INDEX 01 00:54:07
  TRACK 68 AUDIO
    TITLE "2:cjc153_1670"
    INDEX 01 00:54:44
  TRACK 69 AUDIO
    TITLE "0:"
    INDEX 01 00:55:28
  TRACK 70 AUDIO
    TITLE "3:cjc153_1671"
    INDEX 01 00:55:73
  TRACK 71 AUDIO
    TITLE "0:"
    INDEX 01 00:56:65
  TRACK 72 AUDIO
    TITLE "2:cjc153_1672"
    INDEX 01 00:57:54
  TRACK 73 AUDIO
    TITLE "0:"
    INDEX 01 00:59:04
  TRACK 74 AUDIO
    TITLE "3:cjc153_1673"
    INDEX 01 00:59:36
  TRACK 75 AUDIO
    TITLE "0:"
    INDEX 01 01:00:62
  TRACK 76 AUDIO
    TITLE "2:cjc153_1674"
    INDEX 01 01:01:33
  TRACK 77 AUDIO
    TITLE "0:"
    INDEX 01 01:02:46
  TRACK 78 AUDIO
    TITLE "3:cjc153_1675"
    INDEX 01 01:03:02
  TRACK 79 AUDIO
    TITLE "0:"
    INDEX 01 01:04:23
  TRACK 80 AUDIO
    TITLE "2:cjc153_1676"
    INDEX 01 01:04:64
  TRACK 81 AUDIO
    TITLE "0:"
    INDEX 01 01:06:04
  TRACK 82 AUDIO
    TITLE "3:cjc153_1677"
    INDEX 01 01:06:36
  TRACK 83 AUDIO
    TITLE "0:"
    INDEX 01 01:07:55
  TRACK 84 AUDIO
    TITLE "2:cjc153_1678"
    INDEX 01 01:08:25
  TRACK 85 AUDIO
    TITLE "0:"
    INDEX 01 01:09:34
  TRACK 86 AUDIO
    TITLE "3:cjc153_1679"
    INDEX 01 01:09:65
  TRACK 87 AUDIO
    TITLE "0:"
    INDEX 01 01:11:05
  TRACK 88 AUDIO
    TITLE "2:cjc153_1680"
    INDEX 01 01:11:49
  TRACK 89 AUDIO
    TITLE "0:"
    INDEX 01 01:12:52
  TRACK 90 AUDIO
    TITLE "3:cjc153_1681"
    INDEX 01 01:13:10
  TRACK 91 AUDIO
    TITLE "0:"
    INDEX 01 01:14:25
  TRACK 92 AUDIO
    TITLE "2:cjc153_1682"
    INDEX 01 01:14:70
  TRACK 93 AUDIO
    TITLE "0:"
    INDEX 01 01:16:12
  TRACK 94 AUDIO
    TITLE "3:cjc153_1683"
    INDEX 01 01:16:46
  TRACK 95 AUDIO
    TITLE "0:"
    INDEX 01 01:17:67
  TRACK 96 AUDIO
    TITLE "2:cjc153_1684"
    INDEX 01 01:18:37
  TRACK 97 AUDIO
    TITLE "0:"
    INDEX 01 01:19:44
  TRACK 98 AUDIO
    TITLE "3:cjc153_1685"
    INDEX 01 01:20:02
  TRACK 99 AUDIO
    TITLE "0:"
    INDEX 01 01:21:16
  TRACK 100 AUDIO
    TITLE "2:cjc153_1686"
    INDEX 01 01:21:61
  TRACK 101 AUDIO
    TITLE "0:"
    INDEX 01 01:22:68
  TRACK 102 AUDIO
    TITLE "3:cjc153_1687"
    INDEX 01 01:23:24
  TRACK 103 AUDIO
    TITLE "0:"
    INDEX 01 01:24:41
  TRACK 104 AUDIO
    TITLE "2:cjc153_1688"
    INDEX 01 01:25:11
  TRACK 105 AUDIO
    TITLE "0:"
    INDEX 01 01:26:25
  TRACK 106 AUDIO
    TITLE "3:cjc153_1689"
    INDEX 01 01:26:58
  TRACK 107 AUDIO
    TITLE "0:"
    INDEX 01 01:28:04
  TRACK 108 AUDIO
    TITLE "2:cjc153_1690"
    INDEX 01 01:28:47
  TRACK 109 AUDIO
    TITLE "0:"
    INDEX 01 01:29:56
  TRACK 110 AUDIO
    TITLE "3:cjc153_1691"
    INDEX 01 01:30:13
  TRACK 111 AUDIO
    TITLE "0:"
    INDEX 01 01:31:26
  TRACK 112 AUDIO
    TITLE "2:cjc153_1692"
    INDEX 01 01:31:71
  TRACK 113 AUDIO
    TITLE "0:"
    INDEX 01 01:33:07
  TRACK 114 AUDIO
    TITLE "3:cjc153_1693"
    INDEX 01 01:33:40
  TRACK 115 AUDIO
    TITLE "0:"
    INDEX 01 01:34:57
  TRACK 116 AUDIO
    TITLE "2:cjc153_1694"
    INDEX 01 01:35:26
  TRACK 117 AUDIO
    TITLE "0:"
    INDEX 01 01:36:43
  TRACK 118 AUDIO
    TITLE "3:cjc153_1695"
    INDEX 01 01:37:03
  TRACK 119 AUDIO
    TITLE "0:"
    INDEX 01 01:38:34
  TRACK 120 AUDIO
    TITLE "2:cjc153_1696"
    INDEX 01 01:39:06
  TRACK 121 AUDIO
    TITLE "0:"
    INDEX 01 01:40:01
  TRACK 122 AUDIO
    TITLE "3:cjc153_1697"
    INDEX 01 01:40:35
  TRACK 123 AUDIO
    TITLE "0:"
    INDEX 01 01:41:34
  TRACK 124 AUDIO
    TITLE "2:cjc153_1698"
    INDEX 01 01:42:06
  TRACK 125 AUDIO
    TITLE "0:"
    INDEX 01 01:43:35
  TRACK 126 AUDIO
    TITLE "3:cjc153_1699"
    INDEX 01 01:43:64
  TRACK 127 AUDIO
    TITLE "0:"
    INDEX 01 01:45:22
  TRACK 128 AUDIO
    TITLE "2:cjc153_1700"
    INDEX 01 01:45:67
  TRACK 129 AUDIO
    TITLE "0:"
    INDEX 01 01:47:05
  TRACK 130 AUDIO
    TITLE "3:cjc153_1701"
    INDEX 01 01:47:39
  TRACK 131 AUDIO
    TITLE "0:"
    INDEX 01 01:48:60
  TRACK 132 AUDIO
    TITLE "2:cjc153_1702"
    INDEX 01 01:49:30
  TRACK 133 AUDIO
    TITLE "0:"
    INDEX 01 01:50:62
  TRACK 134 AUDIO
    TITLE "3:cjc153_1703"
    INDEX 01 01:51:17
  TRACK 135 AUDIO
    TITLE "0:"
    INDEX 01 01:52:51
  TRACK 136 AUDIO
    TITLE "2:cjc153_1704"
    INDEX 01 01:53:23
  TRACK 137 AUDIO
    TITLE "0:"
    INDEX 01 01:54:37
  TRACK 138 AUDIO
    TITLE "3:cjc153_1705"
    INDEX 01 01:54:70
  TRACK 139 AUDIO
    TITLE "0:"
    INDEX 01 01:56:10
  TRACK 140 AUDIO
    TITLE "2:cjc153_1706"
    INDEX 01 01:56:55
  TRACK 141 AUDIO
    TITLE "0:"
    INDEX 01 01:57:70
  TRACK 142 AUDIO
    TITLE "3:cjc153_1707"
    INDEX 01 01:58:30
  TRACK 143 AUDIO
    TITLE "0:"
    INDEX 01 01:59:51
  TRACK 144 AUDIO
    TITLE "2:cjc153_1708"
    INDEX 01 02:00:20
  TRACK 145 AUDIO
    TITLE "0:"
    INDEX 01 02:01:62
  TRACK 146 AUDIO
    TITLE "3:cjc153_1709"
    INDEX 01 02:02:20
  TRACK 147 AUDIO
    TITLE "0:"
    INDEX 01 02:03:61
  TRACK 148 AUDIO
    TITLE "2:cjc153_1710"
    INDEX 01 02:04:33
  TRACK 149 AUDIO
    TITLE "0:"
    INDEX 01 02:05:52
  TRACK 150 AUDIO
    TITLE "3:cjc153_1711"
    INDEX 01 02:06:10
  TRACK 151 AUDIO
    TITLE "0:"
    INDEX 01 02:07:31
  TRACK 152 AUDIO
    TITLE "2:cjc153_1712"
    INDEX 01 02:08:00
  TRACK 153 AUDIO
    TITLE "0:"
    INDEX 01 02:09:28
  TRACK 154 AUDIO
    TITLE "3:cjc153_1713"
    INDEX 01 02:09:60
  TRACK 155 AUDIO
    TITLE "0:"
    INDEX 01 02:11:15
  TRACK 156 AUDIO
    TITLE "2:cjc153_1714"
    INDEX 01 02:11:61
  TRACK 157 AUDIO
    TITLE "0:"
    INDEX 01 02:12:70
  TRACK 158 AUDIO
    TITLE "3:cjc153_1715"
    INDEX 01 02:13:28
  TRACK 159 AUDIO
    TITLE "0:"
    INDEX 01 02:14:43
  TRACK 160 AUDIO
    TITLE "2:cjc153_1716"
    INDEX 01 02:15:15
  TRACK 161 AUDIO
    TITLE "0:"
    INDEX 01 02:16:07
  TRACK 162 AUDIO
    TITLE "3:cjc153_1717"
    INDEX 01 02:16:40
  TRACK 163 AUDIO
    TITLE "0:"
    INDEX 01 02:17:44
  TRACK 164 AUDIO
    TITLE "2:cjc153_1718"
    INDEX 01 02:18:14
  TRACK 165 AUDIO
    TITLE "0:"
    INDEX 01 02:19:19
  TRACK 166 AUDIO
    TITLE "3:cjc153_1719"
    INDEX 01 02:19:52
  TRACK 167 AUDIO
    TITLE "0:"
    INDEX 01 02:20:65
